<?xml version="1.0" encoding="UTF-8" standalone="no"?>
<!DOCTYPE svg PUBLIC "-//W3C//DTD SVG 1.1//EN"
 "http://www.w3.org/Graphics/SVG/1.1/DTD/svg11.dtd">
<!-- Generated by graphviz version 2.43.0 (0)
 -->
<!-- Title: %3 Pages: 1 -->
<svg width="245pt" height="455pt"
 viewBox="0.00 0.00 244.82 454.69" xmlns="http://www.w3.org/2000/svg" xmlns:xlink="http://www.w3.org/1999/xlink">
<g id="graph0" class="graph" transform="scale(1 1) rotate(0) translate(4 450.69)">
<title>%3</title>
<polygon fill="white" stroke="transparent" points="-4,4 -4,-450.69 240.82,-450.69 240.82,4 -4,4"/>
<!-- 273 -->
<g id="node1" class="node">
<title>273</title>
<ellipse fill="none" stroke="green" cx="125.82" cy="-414.09" rx="28.68" ry="28.68"/>
<ellipse fill="none" stroke="green" cx="125.82" cy="-414.09" rx="32.7" ry="32.7"/>
<text text-anchor="middle" x="125.82" y="-410.39" font-family="Times,serif" font-size="14.00">273</text>
</g>
<!-- 4 -->
<g id="node2" class="node">
<title>4</title>
<ellipse fill="none" stroke="black" cx="140.82" cy="-213.5" rx="18" ry="18"/>
<ellipse fill="none" stroke="black" cx="140.82" cy="-213.5" rx="22" ry="22"/>
<text text-anchor="middle" x="140.82" y="-209.8" font-family="Times,serif" font-size="14.00">4</text>
</g>
<!-- 273&#45;&gt;4 -->
<g id="edge1" class="edge">
<title>273&#45;&gt;4</title>
<path fill="none" stroke="black" d="M144.22,-387.18C148.5,-379.85 152.48,-371.64 154.82,-363.5 168.32,-316.51 163.93,-301.53 154.82,-253.5 154.2,-250.24 153.36,-246.9 152.38,-243.61"/>
<polygon fill="black" stroke="black" points="155.66,-242.38 149.18,-234 149.02,-244.59 155.66,-242.38"/>
<text text-anchor="middle" x="167.82" y="-304.8" font-family="Times,serif" font-size="14.00">V</text>
</g>
<!-- 3 -->
<g id="node3" class="node">
<title>3</title>
<ellipse fill="none" stroke="black" cx="82.82" cy="-308.5" rx="18" ry="18"/>
<ellipse fill="none" stroke="black" cx="82.82" cy="-308.5" rx="22" ry="22"/>
<text text-anchor="middle" x="82.82" y="-304.8" font-family="Times,serif" font-size="14.00">3</text>
</g>
<!-- 273&#45;&gt;3 -->
<g id="edge3" class="edge">
<title>273&#45;&gt;3</title>
<path fill="none" stroke="black" d="M113.61,-383.68C107.72,-369.49 100.68,-352.52 94.82,-338.4"/>
<polygon fill="black" stroke="black" points="98.04,-337.04 90.97,-329.14 91.58,-339.72 98.04,-337.04"/>
<text text-anchor="middle" x="109.32" y="-352.3" font-family="Times,serif" font-size="14.00">C</text>
</g>
<!-- 4&#45;&gt;273 -->
<g id="edge2" class="edge">
<title>4&#45;&gt;273</title>
<path fill="none" stroke="black" d="M139.22,-235.64C136.8,-267.79 132.13,-329.6 128.99,-371.1"/>
<polygon fill="black" stroke="black" points="125.49,-370.95 128.23,-381.19 132.47,-371.48 125.49,-370.95"/>
<text text-anchor="middle" x="140.32" y="-304.8" font-family="Times,serif" font-size="14.00">C</text>
</g>
<!-- 12 -->
<g id="node4" class="node">
<title>12</title>
<ellipse fill="none" stroke="black" cx="140.82" cy="-113.75" rx="22.96" ry="22.96"/>
<ellipse fill="none" stroke="black" cx="140.82" cy="-113.75" rx="27" ry="27"/>
<text text-anchor="middle" x="140.82" y="-110.05" font-family="Times,serif" font-size="14.00">12</text>
</g>
<!-- 4&#45;&gt;12 -->
<g id="edge5" class="edge">
<title>4&#45;&gt;12</title>
<path fill="none" stroke="black" d="M140.82,-191.29C140.82,-179.47 140.82,-164.45 140.82,-150.84"/>
<polygon fill="black" stroke="black" points="144.32,-150.79 140.82,-140.79 137.32,-150.79 144.32,-150.79"/>
<text text-anchor="middle" x="145.82" y="-162.3" font-family="Times,serif" font-size="14.00">V</text>
</g>
<!-- 3&#45;&gt;4 -->
<g id="edge4" class="edge">
<title>3&#45;&gt;4</title>
<path fill="none" stroke="black" d="M94.28,-289.12C102.83,-275.4 114.65,-256.46 124.24,-241.09"/>
<polygon fill="black" stroke="black" points="127.26,-242.85 129.58,-232.52 121.32,-239.15 127.26,-242.85"/>
<text text-anchor="middle" x="119.82" y="-257.3" font-family="Times,serif" font-size="14.00">V</text>
</g>
<!-- 16 -->
<g id="node5" class="node">
<title>16</title>
<ellipse fill="none" stroke="black" cx="57.82" cy="-213.5" rx="27" ry="18"/>
<text text-anchor="middle" x="57.82" y="-209.8" font-family="Times,serif" font-size="14.00">16</text>
</g>
<!-- 3&#45;&gt;16 -->
<g id="edge7" class="edge">
<title>3&#45;&gt;16</title>
<path fill="none" stroke="black" d="M77.27,-286.86C73.66,-273.42 68.91,-255.76 65.01,-241.25"/>
<polygon fill="black" stroke="black" points="68.33,-240.1 62.35,-231.35 61.57,-241.92 68.33,-240.1"/>
<text text-anchor="middle" x="76.32" y="-257.3" font-family="Times,serif" font-size="14.00">C</text>
</g>
<!-- 12&#45;&gt;273 -->
<g id="edge6" class="edge">
<title>12&#45;&gt;273</title>
<path fill="none" stroke="black" d="M115.56,-122.77C86.93,-133.38 41.64,-155.12 21.82,-191.5 -15.18,-259.38 -3.62,-305.78 47.82,-363.5 58.86,-375.88 73.69,-386.35 87.47,-394.43"/>
<polygon fill="black" stroke="black" points="85.88,-397.55 96.31,-399.39 89.3,-391.45 85.88,-397.55"/>
<text text-anchor="middle" x="6.32" y="-257.3" font-family="Times,serif" font-size="14.00">C</text>
</g>
<!-- 272 -->
<g id="node6" class="node">
<title>272</title>
<ellipse fill="none" stroke="black" cx="182.82" cy="-18" rx="28.7" ry="18"/>
<text text-anchor="middle" x="182.82" y="-14.3" font-family="Times,serif" font-size="14.00">272</text>
</g>
<!-- 12&#45;&gt;272 -->
<g id="edge9" class="edge">
<title>12&#45;&gt;272</title>
<path fill="none" stroke="black" d="M151.42,-89.09C157.44,-75.65 164.99,-58.8 171.18,-44.98"/>
<polygon fill="black" stroke="black" points="174.51,-46.11 175.4,-35.56 168.12,-43.25 174.51,-46.11"/>
<text text-anchor="middle" x="170.82" y="-57.8" font-family="Times,serif" font-size="14.00">V</text>
</g>
<!-- 16&#45;&gt;273 -->
<g id="edge8" class="edge">
<title>16&#45;&gt;273</title>
<path fill="none" stroke="black" d="M50.37,-230.95C41.03,-254.08 27.83,-297.12 41.82,-330.5 51.76,-354.21 72.2,-374.56 90.43,-389.12"/>
<polygon fill="black" stroke="black" points="88.54,-392.09 98.6,-395.4 92.8,-386.53 88.54,-392.09"/>
<text text-anchor="middle" x="46.82" y="-304.8" font-family="Times,serif" font-size="14.00">V</text>
</g>
<!-- 272&#45;&gt;273 -->
<g id="edge10" class="edge">
<title>272&#45;&gt;273</title>
<path fill="none" stroke="black" d="M195.03,-34.59C207.74,-52.43 225.82,-83.02 225.82,-112.75 225.82,-309.5 225.82,-309.5 225.82,-309.5 225.82,-346.71 192,-375.68 163.69,-393.41"/>
<polygon fill="black" stroke="black" points="161.53,-390.62 154.74,-398.76 165.12,-396.63 161.53,-390.62"/>
<text text-anchor="middle" x="231.32" y="-209.8" font-family="Times,serif" font-size="14.00">C</text>
</g>
</g>
</svg>
