<?xml version="1.0" encoding="UTF-8" standalone="no"?>
<!DOCTYPE svg PUBLIC "-//W3C//DTD SVG 1.1//EN"
 "http://www.w3.org/Graphics/SVG/1.1/DTD/svg11.dtd">
<!-- Generated by graphviz version 2.43.0 (0)
 -->
<!-- Title: %3 Pages: 1 -->
<svg width="259pt" height="652pt"
 viewBox="0.00 0.00 259.00 651.98" xmlns="http://www.w3.org/2000/svg" xmlns:xlink="http://www.w3.org/1999/xlink">
<g id="graph0" class="graph" transform="scale(1 1) rotate(0) translate(4 647.98)">
<title>%3</title>
<polygon fill="white" stroke="transparent" points="-4,4 -4,-647.98 255,-647.98 255,4 -4,4"/>
<!-- 41 -->
<g id="node1" class="node">
<title>41</title>
<ellipse fill="none" stroke="green" cx="131" cy="-617.24" rx="22.96" ry="22.96"/>
<ellipse fill="none" stroke="green" cx="131" cy="-617.24" rx="27" ry="27"/>
<text text-anchor="middle" x="131" y="-613.54" font-family="Times,serif" font-size="14.00">41</text>
</g>
<!-- 41&#45;&gt;41 -->
<g id="edge1" class="edge">
<title>41&#45;&gt;41</title>
<path fill="none" stroke="black" d="M156.3,-626.9C166.83,-627.57 175.75,-624.35 175.75,-617.24 175.75,-612.57 171.91,-609.58 166.29,-608.26"/>
<polygon fill="black" stroke="black" points="166.52,-604.77 156.3,-607.57 166.04,-611.75 166.52,-604.77"/>
<text text-anchor="middle" x="180.75" y="-613.54" font-family="Times,serif" font-size="14.00">V</text>
</g>
<!-- 3 -->
<g id="node2" class="node">
<title>3</title>
<ellipse fill="none" stroke="black" cx="98" cy="-517.49" rx="18" ry="18"/>
<ellipse fill="none" stroke="black" cx="98" cy="-517.49" rx="22" ry="22"/>
<text text-anchor="middle" x="98" y="-513.79" font-family="Times,serif" font-size="14.00">3</text>
</g>
<!-- 41&#45;&gt;3 -->
<g id="edge2" class="edge">
<title>41&#45;&gt;3</title>
<path fill="none" stroke="black" d="M112.54,-597.35C106.72,-590.16 101.02,-581.51 98,-572.49 95.58,-565.28 94.7,-557.21 94.62,-549.56"/>
<polygon fill="black" stroke="black" points="98.12,-549.61 94.94,-539.5 91.12,-549.38 98.12,-549.61"/>
<text text-anchor="middle" x="103.5" y="-561.29" font-family="Times,serif" font-size="14.00">C</text>
</g>
<!-- 3&#45;&gt;41 -->
<g id="edge11" class="edge">
<title>3&#45;&gt;41</title>
<path fill="none" stroke="black" d="M104.77,-538.54C108.98,-551.02 114.51,-567.4 119.41,-581.9"/>
<polygon fill="black" stroke="black" points="116.16,-583.21 122.67,-591.57 122.79,-580.98 116.16,-583.21"/>
<text text-anchor="middle" x="120" y="-561.29" font-family="Times,serif" font-size="14.00">V</text>
</g>
<!-- 6 -->
<g id="node3" class="node">
<title>6</title>
<ellipse fill="none" stroke="black" cx="98" cy="-422.49" rx="18" ry="18"/>
<ellipse fill="none" stroke="black" cx="98" cy="-422.49" rx="22" ry="22"/>
<text text-anchor="middle" x="98" y="-418.79" font-family="Times,serif" font-size="14.00">6</text>
</g>
<!-- 3&#45;&gt;6 -->
<g id="edge3" class="edge">
<title>3&#45;&gt;6</title>
<path fill="none" stroke="black" d="M98,-495.38C98,-483.38 98,-468.11 98,-454.73"/>
<polygon fill="black" stroke="black" points="101.5,-454.51 98,-444.51 94.5,-454.51 101.5,-454.51"/>
<text text-anchor="middle" x="108.5" y="-466.29" font-family="Times,serif" font-size="14.00">VC</text>
</g>
<!-- 10 -->
<g id="node4" class="node">
<title>10</title>
<ellipse fill="none" stroke="black" cx="101" cy="-322.74" rx="22.96" ry="22.96"/>
<ellipse fill="none" stroke="black" cx="101" cy="-322.74" rx="27" ry="27"/>
<text text-anchor="middle" x="101" y="-319.04" font-family="Times,serif" font-size="14.00">10</text>
</g>
<!-- 6&#45;&gt;10 -->
<g id="edge4" class="edge">
<title>6&#45;&gt;10</title>
<path fill="none" stroke="black" d="M98.65,-400.28C99.01,-388.47 99.47,-373.44 99.89,-359.83"/>
<polygon fill="black" stroke="black" points="103.39,-359.88 100.2,-349.78 96.4,-359.67 103.39,-359.88"/>
<text text-anchor="middle" x="109.5" y="-371.29" font-family="Times,serif" font-size="14.00">VC</text>
</g>
<!-- 12 -->
<g id="node5" class="node">
<title>12</title>
<ellipse fill="none" stroke="black" cx="139" cy="-218.24" rx="22.96" ry="22.96"/>
<ellipse fill="none" stroke="black" cx="139" cy="-218.24" rx="27" ry="27"/>
<text text-anchor="middle" x="139" y="-214.54" font-family="Times,serif" font-size="14.00">12</text>
</g>
<!-- 10&#45;&gt;12 -->
<g id="edge5" class="edge">
<title>10&#45;&gt;12</title>
<path fill="none" stroke="black" d="M110.01,-297.45C114.89,-284.27 121.01,-267.77 126.37,-253.32"/>
<polygon fill="black" stroke="black" points="129.73,-254.31 129.93,-243.71 123.17,-251.87 129.73,-254.31"/>
<text text-anchor="middle" x="127.5" y="-266.79" font-family="Times,serif" font-size="14.00">C</text>
</g>
<!-- 14 -->
<g id="node6" class="node">
<title>14</title>
<ellipse fill="none" stroke="black" cx="62" cy="-218.24" rx="22.96" ry="22.96"/>
<ellipse fill="none" stroke="black" cx="62" cy="-218.24" rx="27" ry="27"/>
<text text-anchor="middle" x="62" y="-214.54" font-family="Times,serif" font-size="14.00">14</text>
</g>
<!-- 10&#45;&gt;14 -->
<g id="edge7" class="edge">
<title>10&#45;&gt;14</title>
<path fill="none" stroke="black" d="M91.76,-297.45C86.74,-284.27 80.46,-267.77 74.97,-253.32"/>
<polygon fill="black" stroke="black" points="78.14,-251.82 71.31,-243.71 71.6,-254.31 78.14,-251.82"/>
<text text-anchor="middle" x="88" y="-266.79" font-family="Times,serif" font-size="14.00">V</text>
</g>
<!-- 12&#45;&gt;41 -->
<g id="edge6" class="edge">
<title>12&#45;&gt;41</title>
<path fill="none" stroke="black" d="M145.52,-244.32C150.32,-264.96 156,-295.04 156,-321.74 156,-518.49 156,-518.49 156,-518.49 156,-540.31 150.08,-564.05 144,-582.67"/>
<polygon fill="black" stroke="black" points="140.67,-581.57 140.74,-592.17 147.29,-583.85 140.67,-581.57"/>
<text text-anchor="middle" x="161" y="-418.79" font-family="Times,serif" font-size="14.00">V</text>
</g>
<!-- 79 -->
<g id="node9" class="node">
<title>79</title>
<ellipse fill="none" stroke="black" cx="163" cy="-113.75" rx="27" ry="18"/>
<text text-anchor="middle" x="163" y="-110.05" font-family="Times,serif" font-size="14.00">79</text>
</g>
<!-- 12&#45;&gt;79 -->
<g id="edge14" class="edge">
<title>12&#45;&gt;79</title>
<path fill="none" stroke="black" d="M144.93,-191.91C148.5,-176.69 153.03,-157.33 156.66,-141.81"/>
<polygon fill="black" stroke="black" points="160.14,-142.31 159.01,-131.78 153.32,-140.72 160.14,-142.31"/>
<text text-anchor="middle" x="157.5" y="-162.3" font-family="Times,serif" font-size="14.00">C</text>
</g>
<!-- 14&#45;&gt;41 -->
<g id="edge8" class="edge">
<title>14&#45;&gt;41</title>
<path fill="none" stroke="black" d="M55.86,-244.35C51.35,-264.99 46,-295.09 46,-321.74 46,-518.49 46,-518.49 46,-518.49 46,-552.49 75.64,-580.42 99.92,-597.59"/>
<polygon fill="black" stroke="black" points="97.98,-600.51 108.22,-603.21 101.9,-594.71 97.98,-600.51"/>
<text text-anchor="middle" x="51.5" y="-418.79" font-family="Times,serif" font-size="14.00">C</text>
</g>
<!-- 17 -->
<g id="node7" class="node">
<title>17</title>
<ellipse fill="none" stroke="black" cx="62" cy="-113.75" rx="22.96" ry="22.96"/>
<ellipse fill="none" stroke="black" cx="62" cy="-113.75" rx="27" ry="27"/>
<text text-anchor="middle" x="62" y="-110.05" font-family="Times,serif" font-size="14.00">17</text>
</g>
<!-- 14&#45;&gt;17 -->
<g id="edge9" class="edge">
<title>14&#45;&gt;17</title>
<path fill="none" stroke="black" d="M62,-191.38C62,-179.12 62,-164.27 62,-150.91"/>
<polygon fill="black" stroke="black" points="65.5,-150.6 62,-140.6 58.5,-150.6 65.5,-150.6"/>
<text text-anchor="middle" x="67" y="-162.3" font-family="Times,serif" font-size="14.00">V</text>
</g>
<!-- 17&#45;&gt;41 -->
<g id="edge10" class="edge">
<title>17&#45;&gt;41</title>
<path fill="none" stroke="black" d="M42.72,-132.78C24.52,-151.85 0,-183.76 0,-217.24 0,-518.49 0,-518.49 0,-518.49 0,-566.16 56.41,-593.36 95.2,-606.42"/>
<polygon fill="black" stroke="black" points="94.53,-609.88 105.12,-609.59 96.66,-603.22 94.53,-609.88"/>
<text text-anchor="middle" x="5.5" y="-371.29" font-family="Times,serif" font-size="14.00">C</text>
</g>
<!-- 40 -->
<g id="node8" class="node">
<title>40</title>
<ellipse fill="none" stroke="black" cx="154" cy="-18" rx="27" ry="18"/>
<text text-anchor="middle" x="154" y="-14.3" font-family="Times,serif" font-size="14.00">40</text>
</g>
<!-- 17&#45;&gt;40 -->
<g id="edge12" class="edge">
<title>17&#45;&gt;40</title>
<path fill="none" stroke="black" d="M80.62,-93.78C95.6,-78.51 116.67,-57.04 132.39,-41.02"/>
<polygon fill="black" stroke="black" points="135.13,-43.23 139.63,-33.64 130.13,-38.33 135.13,-43.23"/>
<text text-anchor="middle" x="123" y="-57.8" font-family="Times,serif" font-size="14.00">V</text>
</g>
<!-- 40&#45;&gt;41 -->
<g id="edge13" class="edge">
<title>40&#45;&gt;41</title>
<path fill="none" stroke="black" d="M174.82,-29.86C200.27,-44.82 240,-74.32 240,-112.75 240,-518.49 240,-518.49 240,-518.49 240,-559.26 197.21,-587.31 165.25,-602.58"/>
<polygon fill="black" stroke="black" points="163.39,-599.58 155.73,-606.91 166.29,-605.95 163.39,-599.58"/>
<text text-anchor="middle" x="245.5" y="-319.04" font-family="Times,serif" font-size="14.00">C</text>
</g>
<!-- 79&#45;&gt;41 -->
<g id="edge15" class="edge">
<title>79&#45;&gt;41</title>
<path fill="none" stroke="black" d="M171.14,-130.98C180.33,-150.81 194,-185.64 194,-217.24 194,-518.49 194,-518.49 194,-518.49 194,-546.75 175.16,-573.34 158.08,-591.63"/>
<polygon fill="black" stroke="black" points="155.42,-589.34 150.93,-598.94 160.43,-594.23 155.42,-589.34"/>
<text text-anchor="middle" x="199" y="-371.29" font-family="Times,serif" font-size="14.00">V</text>
</g>
</g>
</svg>
