<?xml version="1.0" encoding="UTF-8" standalone="no"?>
<!DOCTYPE svg PUBLIC "-//W3C//DTD SVG 1.1//EN"
 "http://www.w3.org/Graphics/SVG/1.1/DTD/svg11.dtd">
<!-- Generated by graphviz version 2.43.0 (0)
 -->
<!-- Title: %3 Pages: 1 -->
<svg width="283pt" height="586pt"
 viewBox="0.00 0.00 283.35 586.18" xmlns="http://www.w3.org/2000/svg" xmlns:xlink="http://www.w3.org/1999/xlink">
<g id="graph0" class="graph" transform="scale(1 1) rotate(0) translate(4 582.18)">
<title>%3</title>
<polygon fill="white" stroke="transparent" points="-4,4 -4,-582.18 279.35,-582.18 279.35,4 -4,4"/>
<!-- 121 -->
<g id="node1" class="node">
<title>121</title>
<ellipse fill="none" stroke="green" cx="140.75" cy="-545.58" rx="28.68" ry="28.68"/>
<ellipse fill="none" stroke="green" cx="140.75" cy="-545.58" rx="32.7" ry="32.7"/>
<text text-anchor="middle" x="140.75" y="-541.88" font-family="Times,serif" font-size="14.00">121</text>
</g>
<!-- 1 -->
<g id="node2" class="node">
<title>1</title>
<ellipse fill="none" stroke="black" cx="102.75" cy="-439.98" rx="18" ry="18"/>
<ellipse fill="none" stroke="black" cx="102.75" cy="-439.98" rx="22" ry="22"/>
<text text-anchor="middle" x="102.75" y="-436.28" font-family="Times,serif" font-size="14.00">1</text>
</g>
<!-- 121&#45;&gt;1 -->
<g id="edge1" class="edge">
<title>121&#45;&gt;1</title>
<path fill="none" stroke="black" d="M114.75,-525.44C105.69,-517.2 96.58,-506.74 91.75,-494.98 88.49,-487.06 88.86,-478.06 90.72,-469.72"/>
<polygon fill="black" stroke="black" points="94.12,-470.57 93.58,-459.99 87.4,-468.6 94.12,-470.57"/>
<text text-anchor="middle" x="96.75" y="-483.78" font-family="Times,serif" font-size="14.00">V</text>
</g>
<!-- 3 -->
<g id="node3" class="node">
<title>3</title>
<ellipse fill="none" stroke="black" cx="164.75" cy="-439.98" rx="18" ry="18"/>
<ellipse fill="none" stroke="black" cx="164.75" cy="-439.98" rx="22" ry="22"/>
<text text-anchor="middle" x="164.75" y="-436.28" font-family="Times,serif" font-size="14.00">3</text>
</g>
<!-- 121&#45;&gt;3 -->
<g id="edge3" class="edge">
<title>121&#45;&gt;3</title>
<path fill="none" stroke="black" d="M147.95,-513.5C151.02,-500.24 154.6,-484.81 157.66,-471.6"/>
<polygon fill="black" stroke="black" points="161.13,-472.09 159.98,-461.56 154.31,-470.51 161.13,-472.09"/>
<text text-anchor="middle" x="161.25" y="-483.78" font-family="Times,serif" font-size="14.00">C</text>
</g>
<!-- 1&#45;&gt;121 -->
<g id="edge2" class="edge">
<title>1&#45;&gt;121</title>
<path fill="none" stroke="black" d="M110.11,-461.05C114.68,-473.53 120.73,-490 126.23,-505.02"/>
<polygon fill="black" stroke="black" points="123.03,-506.43 129.76,-514.62 129.6,-504.02 123.03,-506.43"/>
<text text-anchor="middle" x="127.25" y="-483.78" font-family="Times,serif" font-size="14.00">C</text>
</g>
<!-- 6 -->
<g id="node4" class="node">
<title>6</title>
<ellipse fill="none" stroke="black" cx="55.75" cy="-340.24" rx="18" ry="18"/>
<ellipse fill="none" stroke="black" cx="55.75" cy="-340.24" rx="22" ry="22"/>
<text text-anchor="middle" x="55.75" y="-336.54" font-family="Times,serif" font-size="14.00">6</text>
</g>
<!-- 1&#45;&gt;6 -->
<g id="edge5" class="edge">
<title>1&#45;&gt;6</title>
<path fill="none" stroke="black" d="M93.46,-419.67C86.64,-405.48 77.25,-385.96 69.55,-369.95"/>
<polygon fill="black" stroke="black" points="72.5,-368 65.01,-360.51 66.19,-371.04 72.5,-368"/>
<text text-anchor="middle" x="88.75" y="-388.78" font-family="Times,serif" font-size="14.00">V</text>
</g>
<!-- 3&#45;&gt;121 -->
<g id="edge4" class="edge">
<title>3&#45;&gt;121</title>
<path fill="none" stroke="black" d="M170.03,-461.54C171.8,-471.74 172.68,-484.17 169.75,-494.98 168.4,-499.97 166.41,-504.97 164.09,-509.77"/>
<polygon fill="black" stroke="black" points="160.94,-508.24 159.31,-518.71 167.11,-511.54 160.94,-508.24"/>
<text text-anchor="middle" x="176.75" y="-483.78" font-family="Times,serif" font-size="14.00">V</text>
</g>
<!-- 23 -->
<g id="node5" class="node">
<title>23</title>
<ellipse fill="none" stroke="black" cx="205.75" cy="-340.24" rx="22.96" ry="22.96"/>
<ellipse fill="none" stroke="black" cx="205.75" cy="-340.24" rx="27" ry="27"/>
<text text-anchor="middle" x="205.75" y="-336.54" font-family="Times,serif" font-size="14.00">23</text>
</g>
<!-- 3&#45;&gt;23 -->
<g id="edge7" class="edge">
<title>3&#45;&gt;23</title>
<path fill="none" stroke="black" d="M173.04,-419.2C178.42,-406.39 185.55,-389.38 191.79,-374.52"/>
<polygon fill="black" stroke="black" points="195.08,-375.71 195.72,-365.13 188.63,-373 195.08,-375.71"/>
<text text-anchor="middle" x="192.25" y="-388.78" font-family="Times,serif" font-size="14.00">C</text>
</g>
<!-- 6&#45;&gt;121 -->
<g id="edge6" class="edge">
<title>6&#45;&gt;121</title>
<path fill="none" stroke="black" d="M52.89,-362.47C50.4,-387.18 48.83,-428.81 60.75,-461.98 69.18,-485.45 88.42,-505.67 105.92,-520.24"/>
<polygon fill="black" stroke="black" points="103.79,-523.02 113.79,-526.52 108.16,-517.55 103.79,-523.02"/>
<text text-anchor="middle" x="66.25" y="-436.28" font-family="Times,serif" font-size="14.00">C</text>
</g>
<!-- 55 -->
<g id="node6" class="node">
<title>55</title>
<ellipse fill="none" stroke="black" cx="26.75" cy="-235.74" rx="22.96" ry="22.96"/>
<ellipse fill="none" stroke="black" cx="26.75" cy="-235.74" rx="27" ry="27"/>
<text text-anchor="middle" x="26.75" y="-232.04" font-family="Times,serif" font-size="14.00">55</text>
</g>
<!-- 6&#45;&gt;55 -->
<g id="edge9" class="edge">
<title>6&#45;&gt;55</title>
<path fill="none" stroke="black" d="M50.02,-318.99C46.2,-305.49 41.08,-287.4 36.62,-271.62"/>
<polygon fill="black" stroke="black" points="39.89,-270.33 33.8,-261.66 33.15,-272.23 39.89,-270.33"/>
<text text-anchor="middle" x="48.75" y="-284.29" font-family="Times,serif" font-size="14.00">V</text>
</g>
<!-- 23&#45;&gt;121 -->
<g id="edge8" class="edge">
<title>23&#45;&gt;121</title>
<path fill="none" stroke="black" d="M208.07,-367.02C209.76,-399.15 208.57,-454.7 185.75,-494.98 181.8,-501.95 176.71,-508.77 171.39,-515"/>
<polygon fill="black" stroke="black" points="168.68,-512.78 164.59,-522.55 173.89,-517.46 168.68,-512.78"/>
<text text-anchor="middle" x="211.75" y="-436.28" font-family="Times,serif" font-size="14.00">V</text>
</g>
<!-- 120 -->
<g id="node9" class="node">
<title>120</title>
<ellipse fill="none" stroke="black" cx="246.75" cy="-235.74" rx="28.7" ry="18"/>
<text text-anchor="middle" x="246.75" y="-232.04" font-family="Times,serif" font-size="14.00">120</text>
</g>
<!-- 23&#45;&gt;120 -->
<g id="edge12" class="edge">
<title>23&#45;&gt;120</title>
<path fill="none" stroke="black" d="M215.36,-315.21C221.67,-299.43 229.92,-278.8 236.38,-262.66"/>
<polygon fill="black" stroke="black" points="239.67,-263.85 240.14,-253.27 233.17,-261.25 239.67,-263.85"/>
<text text-anchor="middle" x="233.25" y="-284.29" font-family="Times,serif" font-size="14.00">C</text>
</g>
<!-- 55&#45;&gt;121 -->
<g id="edge14" class="edge">
<title>55&#45;&gt;121</title>
<path fill="none" stroke="black" d="M25.9,-262.67C25.46,-277.54 24.97,-296.56 24.75,-313.49 24.44,-337.26 21.81,-343.39 24.75,-366.98 30.12,-410.2 32.86,-421.44 48.75,-461.98 54.84,-477.54 55.48,-482.64 66.75,-494.98 77.17,-506.4 90.73,-516.46 103.39,-524.49"/>
<polygon fill="black" stroke="black" points="101.6,-527.49 111.97,-529.71 105.25,-521.52 101.6,-527.49"/>
<text text-anchor="middle" x="35.25" y="-388.78" font-family="Times,serif" font-size="14.00">C</text>
</g>
<!-- 56 -->
<g id="node7" class="node">
<title>56</title>
<ellipse fill="none" stroke="black" cx="26.75" cy="-131.24" rx="22.96" ry="22.96"/>
<ellipse fill="none" stroke="black" cx="26.75" cy="-131.24" rx="27" ry="27"/>
<text text-anchor="middle" x="26.75" y="-127.54" font-family="Times,serif" font-size="14.00">56</text>
</g>
<!-- 55&#45;&gt;56 -->
<g id="edge10" class="edge">
<title>55&#45;&gt;56</title>
<path fill="none" stroke="black" d="M26.75,-208.88C26.75,-196.62 26.75,-181.76 26.75,-168.41"/>
<polygon fill="black" stroke="black" points="30.25,-168.1 26.75,-158.1 23.25,-168.1 30.25,-168.1"/>
<text text-anchor="middle" x="31.75" y="-179.79" font-family="Times,serif" font-size="14.00">V</text>
</g>
<!-- 57 -->
<g id="node8" class="node">
<title>57</title>
<ellipse fill="none" stroke="black" cx="26.75" cy="-26.75" rx="22.96" ry="22.96"/>
<ellipse fill="none" stroke="black" cx="26.75" cy="-26.75" rx="27" ry="27"/>
<text text-anchor="middle" x="26.75" y="-23.05" font-family="Times,serif" font-size="14.00">57</text>
</g>
<!-- 56&#45;&gt;57 -->
<g id="edge11" class="edge">
<title>56&#45;&gt;57</title>
<path fill="none" stroke="black" d="M26.75,-104.38C26.75,-92.12 26.75,-77.27 26.75,-63.91"/>
<polygon fill="black" stroke="black" points="30.25,-63.6 26.75,-53.6 23.25,-63.6 30.25,-63.6"/>
<text text-anchor="middle" x="31.75" y="-75.3" font-family="Times,serif" font-size="14.00">V</text>
</g>
<!-- 120&#45;&gt;121 -->
<g id="edge13" class="edge">
<title>120&#45;&gt;121</title>
<path fill="none" stroke="black" d="M247.52,-253.78C248.7,-292.25 248.37,-388.26 220.75,-461.98 214.89,-477.63 213.48,-482.18 202.75,-494.98 194.94,-504.3 185.16,-513.08 175.68,-520.59"/>
<polygon fill="black" stroke="black" points="173.32,-517.99 167.49,-526.85 177.57,-523.56 173.32,-517.99"/>
<text text-anchor="middle" x="244.75" y="-388.78" font-family="Times,serif" font-size="14.00">V</text>
</g>
</g>
</svg>
